SplineFontDB: 3.0
FontName: Tnua-Libre-Bold
FullName: Tnua-Libre-Bold
FamilyName: Tnua-Libre
Weight: Bold
Copyright: Copyright (C) 1999, 2000, 2004 Elad M. Mizrahi \n<elamizrahi@gmail.com>\n\nThis font is free software; you can redistribute it and/or modify\nit under the terms of the GNU General Public License as published by\nthe Free Software Foundation; either version 2 of the License, or\n(at your option) any later version.\n\nThis font is distributed in the hope that it will be useful,\nbut WITHOUT ANY WARRANTY; without even the implied warranty of\nMERCHANTABILITY or FITNESS FOR A PARTICULAR PURPOSE.  See the\nGNU General Public License for more details.\n\nYou should have received a copy of the GNU General Public License\nalong with this font; if not, write to the Free Software\nFoundation, Inc., 675 Mass Ave, Cambridge, MA 02139, USA.\n\nAs a special exception, if you create a document which uses\nthis font, and embed this font or unaltered portions of this font into\nthe document, this font does not by itself cause the resulting\ndocument to be covered by the GNU General Public License.  This\nexception does not however invalidate any other reasons why the\ndocument might be covered by the GNU General Public License.  If you\nmodify this font, you may extend this exception to your version of the\nfont, but you are not obligated to do so. If you do not wish to do so,\ndelete this exception statement from your version.
Version: 
ItalicAngle: 0
UnderlinePosition: 0
UnderlineWidth: 0
Ascent: 819
Descent: 205
LayerCount: 2
Layer: 0 0 "Back"  1
Layer: 1 0 "Fore"  0
XUID: [1021 309 482425844 12127043]
FSType: 8
OS2Version: 0
OS2_WeightWidthSlopeOnly: 0
OS2_UseTypoMetrics: 0
CreationTime: 1305984597
ModificationTime: 1305985604
PfmFamily: 33
TTFWeight: 700
TTFWidth: 5
LineGap: 92
VLineGap: 92
OS2TypoAscent: 0
OS2TypoAOffset: 1
OS2TypoDescent: 0
OS2TypoDOffset: 1
OS2TypoLinegap: 92
OS2WinAscent: 0
OS2WinAOffset: 1
OS2WinDescent: 0
OS2WinDOffset: 1
HheadAscent: 0

StartChar: .notdef
Encoding: 0 0 0
Width: 1040
VWidth: 90
Flags: W
LayerCount: 2
Fore
SplineSet
20 0 m 0
 1020 0 l 0
 1020 1024 l 0
 20 1024 l 0
 20 0 l 0
EndSplineSet
Validated: 9
EndChar

StartChar: glyph 1
Encoding: 224 1488 1
Width: 810
VWidth: 90
Flags: W
LayerCount: 2
Fore
SplineSet
189.983 852.453 m 0
 27.21 741.388 l 0
 81.873 656.825 l 0
 185.124 494.012 l 0
 169.189 481.812 153.157 467.912 137.748 449.839 c 0
 59.8135 358.413 5.21777 198.259 23.5684 -70.1543 c 0
 30.8545 -171.123 l 0
 223.995 -157.241 l 0
 217.92 -56.2715 l 0
 201.845 178.922 249.887 275.348 283.512 314.791 c 0
 286.874 318.735 290.044 321.821 293.231 324.889 c 0
 356.394 225.181 l 0
 364.898 163.337 l 0
 392.838 167.123 l 0
 575.035 -119.379 l 0
 628.484 -202.677 l 0
 790.037 -91.6113 l 0
 736.588 -8.31055 l 0
 588.402 225.181 l 0
 624.059 246.529 654.354 272.401 678.287 302.171 c 0
 726.85 362.55 750.326 431.327 762.102 494.012 c 0
 785.646 619.381 764.531 731.29 764.531 731.29 c 0
 747.527 830.997 l 0
 555.602 794.396 l 0
 573.828 694.688 l 0
 573.828 694.688 586.418 613.092 571.395 533.138 c 0
 563.891 493.161 549.316 456.32 528.881 430.906 c 0
 516.547 415.567 502.013 403.74 481.513 394.305 c 0
 421.989 487.701 l 0
 419.559 554.594 l 0
 380.688 553.332 l 0
 243.429 769.155 l 0
 189.983 852.453 l 0
EndSplineSet
Validated: 524841
EndChar

StartChar: glyph 2
Encoding: 225 1489 2
Width: 979
VWidth: 90
Flags: W
HStem: 608.864 200.677<27.29 41.9816 103.507 500.482> 612.651 204.463<27.29 491.817>
VStem: 562.963 194.353<366.537 537.701>
LayerCount: 2
Fore
SplineSet
222.85 817.114 m 0x60
 189.81 816.393 154.878 814.777 117.172 813.327 c 0
 20 809.541 l 0
 27.29 608.864 l 0xa0
 124.463 612.651 l 0
 271.828 618.321 376.482 616.848 440.285 605.078 c 0
 504.084 593.31 517.825 581.468 532.604 555.855 c 0
 547.372 530.244 560.834 469.547 564.185 366.537 c 0
 566.852 284.236 564.787 169.52 562.963 35.8633 c 0
 119.602 34.6025 l 0
 22.4229 34.6025 l 0
 23.6406 -167.337 l 0
 120.817 -167.337 l 0
 754.888 -164.812 l 0
 861.781 -164.812 l 0
 958.961 -163.552 l 0
 957.742 38.3887 l 0
 860.566 37.123 l 0
 757.315 37.123 l 0
 759.206 168.085 761.484 281.932 758.533 372.848 c 0
 754.803 487.531 745.111 579.445 699.013 659.349 c 0
 652.919 739.252 568.393 785.872 474.292 803.229 c 0
 427.245 811.908 375.076 815.995 316.385 817.113 c 0
 287.039 817.672 255.895 817.835 222.85 817.114 c 0x60
EndSplineSet
Validated: 524841
EndChar

StartChar: glyph 3
Encoding: 226 1490 3
Width: 714
VWidth: 90
Flags: HW
LayerCount: 2
Fore
SplineSet
222.854 814.591 m 0
 190.268 815.202 155.396 813.857 117.173 813.329 c 0
 20 812.069 l 0
 23.6455 610.131 l 0
 120.821 611.395 l 0
 196.151 612.436 252.802 612.925 288.446 607.607 c 0
 324.098 602.29 332.708 596.004 339.464 588.677 c 0
 351.901 575.188 373.662 498.238 381.98 322.369 c 0
 376.31 318.688 370.62 315.175 364.974 311.011 c 0
 306.204 267.698 231.671 185.98 96.5244 -3.25781 c 0
 38.2197 -84.0322 l 0
 194.915 -205.196 l 0
 252.005 -123.158 l 0
 327.398 -17.5977 379.016 43.6992 414.776 82.5674 c 0
 429.367 28.9053 449.828 -30.6416 477.938 -101.702 c 0
 514.379 -195.1 l 0
 694.15 -118.109 l 0
 657.716 -24.7139 l 0
 619.972 70.7051 600.262 133.835 589.691 187.322 c 0
 596.978 191.109 l 0
 583.615 221.4 l 0
 583.615 222.66 l 0
 580.913 242.938 579.336 262.345 578.755 281.979 c 0
 572.34 499.853 568.043 631.099 479.156 727.508 c 0
 434.706 775.713 374.052 798.238 315.17 807.021 c 0
 285.729 811.412 255.438 813.982 222.854 814.591 c 0
EndSplineSet
Validated: 524841
EndChar

StartChar: glyph 4
Encoding: 227 1491 4
Width: 975
VWidth: 90
Flags: W
LayerCount: 2
Fore
SplineSet
20 813.327 m 0
 20 611.39 l 0
 117.176 611.39 l 0
 536.242 611.39 l 0
 541.1 -63.8447 l 0
 542.314 -164.813 l 0
 736.666 -163.554 l 0
 735.447 -62.584 l 0
 730.592 611.388 l 0
 858.133 611.388 l 0
 955.309 611.388 l 0
 955.309 813.326 l 0
 858.133 813.326 l 0
 117.172 813.326 l 0
 20 813.327 l 0
EndSplineSet
Validated: 524809
EndChar

StartChar: glyph 5
Encoding: 228 1492 5
Width: 904
VWidth: 90
Flags: W
HStem: 611.393 201.935<51.1089 120.817 520.454 633.343>
VStem: 689.294 194.352<408.191 539.143>
LayerCount: 2
Fore
SplineSet
352.818 819.639 m 0
 284.298 818.269 206.839 815.229 117.176 813.327 c 0
 20 812.067 l 0
 23.6455 610.129 l 0
 120.817 611.393 l 0
 302.229 615.237 433.792 621.088 520.454 615.18 c 0
 607.108 609.272 635.753 594.65 649.211 578.577 c 0
 662.669 562.506 679.704 514.296 685.651 408.191 c 0
 691.596 302.088 688.581 146.943 689.294 -63.8408 c 0
 689.294 -164.811 l 0
 883.646 -163.55 l 0
 883.646 -62.5801 l 0
 882.935 145.841 886.749 299.116 880.004 419.549 c 0
 873.252 539.981 859.067 635.999 796.19 711.098 c 0
 733.308 786.197 639.508 809.912 533.815 817.116 c 0
 480.967 820.719 421.354 821.013 352.818 819.639 c 0
307.88 427.119 m 0
 113.528 425.859 l 0
 114.739 324.89 l 0
 117.176 -63.8428 l 0
 117.176 -164.812 l 0
 311.528 -163.553 l 0
 311.528 -62.583 l 0
 309.091 326.149 l 0
 307.88 427.119 l 0
EndSplineSet
Validated: 524841
EndChar

StartChar: glyph 6
Encoding: 229 1493 6
Width: 243
VWidth: 90
Flags: W
VStem: 21.2148 194.359<-46.4439 713.782> 28.5078 194.353<-63.6855 699.218>
LayerCount: 2
Fore
SplineSet
214.353 814.752 m 0x80
 20 813.487 l 0
 21.2148 712.519 l 0x80
 27.29 -63.6855 l 0
 28.5078 -164.653 l 0
 222.86 -163.39 l 0x40
 221.646 -62.4209 l 0
 215.574 713.782 l 0
 214.353 814.752 l 0x80
EndSplineSet
Validated: 524809
EndChar

StartChar: glyph 7
Encoding: 230 1494 7
Width: 593
VWidth: 90
Flags: HW
LayerCount: 2
Fore
SplineSet
187.625 836.207 m 0
 94.0977 810.966 l 0
 90.5801 810.037 85.6172 809.276 75.875 804.655 c 0
 71.0078 802.344 65.4785 799.527 55.2266 790.771 c 0
 50.0967 786.394 37.0215 770.602 37.0078 770.577 c 0
 37.0078 770.548 20.0039 728.951 20 728.928 c 0
 20 728.897 26.0654 675.941 26.0723 675.919 c 0
 26.0723 675.889 46.7031 641.863 46.7246 641.842 c 0
 46.7246 641.802 60.0645 629.9 64.9434 626.696 c 0
 69.8213 623.491 73.8105 621.924 77.0859 620.386 c 0
 90.2051 614.232 94.8623 613.654 98.9551 612.813 c 0
 115.32 609.445 116.143 610.536 122.033 610.288 c 0
 133.818 609.797 148.191 610.259 165.765 610.288 c 0
 184.486 610.318 210.99 611.22 235.002 611.553 c 0
 207.381 536.78 199.651 457.922 200.986 380.584 c 0
 203.941 209.754 233.244 30.3213 219.209 -43.4873 c 0
 199.771 -143.194 l 0
 390.479 -182.32 l 0
 409.916 -82.6133 l 0
 439.074 70.7129 397.801 242.001 395.336 384.371 c 0
 394.106 455.556 401.603 515.708 417.203 550.971 c 0
 432.801 586.233 447.08 603.213 497.375 615.339 c 0
 501.123 616.241 504.422 615.232 519.235 622.911 c 0
 522.944 624.834 533.791 631.728 533.816 631.746 c 0
 533.816 631.746 556.881 656.971 556.896 656.988 c 0
 556.896 656.988 572.688 717.553 572.684 717.569 c 0
 572.684 717.569 552.045 776.872 552.035 776.89 c 0
 552.035 776.89 534.09 795.466 527.742 799.607 c 0
 521.393 803.75 516.934 805.568 513.164 807.181 c 0
 505.625 810.402 500.681 811.421 497.375 812.229 c 0
 490.758 813.844 488.979 814.445 486.439 814.754 c 0
 476.276 815.981 472.574 814.647 467.006 814.754 c 0
 455.873 815.002 442.17 814.931 424.493 814.754 c 0
 389.133 814.435 341.072 814.286 293.307 813.489 c 0
 256.352 812.878 223.719 812.494 193.703 812.226 c 0
 187.625 836.207 l 0
453.644 810.966 m 0
 439.254 807.495 429.34 797.308 415.992 792.033 c 0
 416.416 792.502 418.422 794.559 418.418 794.559 c 0
 418.418 794.559 429.364 801.508 432.996 803.394 c 0
 447.52 810.935 450.608 810.233 453.644 810.966 c 0
EndSplineSet
Validated: 524841
EndChar

StartChar: glyph 8
Encoding: 231 1495 8
Width: 816
VWidth: 90
Flags: W
HStem: 614.078 199.413<217.986 259.907 417.942 527.288>
VStem: 26.0645 194.356<-126.24 36.0264 349.604 614.078> 34.5703 195.563<36.0264 57.4844 322.527 610.984> 601.835 194.349<-63.6797 298.59>
LayerCount: 2
Fore
SplineSet
458.5 817.276 m 0xb0
 364.68 827.197 255.207 820.951 112.316 813.491 c 0
 20 708.735 l 0
 20 708.735 28.623 515.17 33.3555 322.527 c 0
 35.7256 226.206 36.748 130.132 35.7891 60.0068 c 0
 35.6475 49.5957 34.832 45.1846 34.5703 36.0264 c 0xb0
 22.4268 36.0264 l 0
 26.0645 -165.912 l 0
 123.245 -164.648 l 0
 174.993 -163.555 199.946 -125.688 208.273 -110.377 c 0
 216.6 -95.0674 218.554 -86.5195 220.421 -78.8242 c 0xd0
 224.154 -63.4346 225.295 -51.7051 226.492 -38.4365 c 0
 228.887 -11.8984 229.613 19.7441 230.134 57.4844 c 0
 231.172 132.965 230.134 229.918 227.708 327.577 c 0
 224.18 471.065 220.673 548.241 217.986 614.078 c 0
 301.662 617.453 390.281 621.634 437.845 616.604 c 0
 506.179 609.377 527.738 597.429 544.738 574.953 c 0
 561.744 552.478 580.346 497.133 589.684 391.945 c 0
 599.019 286.76 599.933 137.12 600.615 -63.6797 c 0
 601.835 -164.648 l 0
 796.184 -163.385 l 0
 794.973 -62.4141 l 0
 794.285 138.707 793.51 290.498 782.821 410.88 c 0
 772.141 531.262 753.189 625.069 696.581 699.904 c 0
 639.973 774.739 552.322 807.36 458.5 817.276 c 0xb0
EndSplineSet
Validated: 524841
EndChar

StartChar: glyph 9
Encoding: 232 1496 9
Width: 878
VWidth: 90
Flags: W
HStem: -164.651 201.938<321.873 579.794>
VStem: 33.1416 194.349<354.442 718.83 807.18 807.253> 664.778 193.141<161.232 493.322>
LayerCount: 2
Fore
SplineSet
39.2129 819.801 m 0
 33.1416 718.83 l 0
 26.6689 611.495 15.1602 472.288 22.209 335.146 c 0
 29.251 198.006 50.7998 58.6025 137.604 -47.2754 c 0
 214.694 -141.303 327.499 -162.182 423.054 -164.651 c 0
 518.61 -167.123 598.818 -153.432 659.921 -125.526 c 0
 715.896 -99.9629 770.201 -46.1455 803.255 29.7148 c 0
 836.306 105.573 853.607 202.337 857.919 336.408 c 0
 862.669 484.17 822.753 615.837 741.306 706.21 c 0
 659.862 796.582 532.788 837.865 408.477 804.655 c 0
 313.737 780.675 l 0
 362.319 585.047 l 0
 457.067 609.026 l 0
 519.011 625.575 560.731 611.313 599.187 568.639 c 0
 637.644 525.966 668.142 448.567 664.778 343.981 c 0
 660.981 225.708 644.159 152.105 627.127 113.015 c 0
 610.095 73.9219 598.638 67.5215 582.185 60.0059 c 0
 570.851 54.8301 494.562 35.5635 427.914 37.2861 c 0
 361.274 39.0117 305.552 59.8887 285.792 83.9854 c 0
 248.485 129.492 222.616 228.565 216.556 346.507 c 0
 210.505 464.446 220.834 595.789 227.49 706.209 c 0
 233.566 807.18 l 0
 39.2129 819.801 l 0
EndSplineSet
Validated: 524841
EndChar

StartChar: glyph 10
Encoding: 233 1497 10
Width: 244
VWidth: 90
Flags: W
VStem: 22.4326 194.352<394.767 709.994> 29.7197 194.352<302.331 700.85>
LayerCount: 2
Fore
SplineSet
214.353 810.966 m 0x80
 20 808.44 l 0
 22.4326 707.472 l 0x80
 28.5049 302.331 l 0
 29.7197 201.362 l 0
 224.071 205.146 l 0x40
 222.853 306.116 l 0
 216.784 709.994 l 0
 214.353 810.966 l 0x80
EndSplineSet
Validated: 524809
EndChar

StartChar: glyph 11
Encoding: 235 1499 11
Width: 824
VWidth: 90
Flags: HW
LayerCount: 2
Fore
SplineSet
363.757 817.276 m 0
 290.156 820.459 214.741 815.68 136.608 813.491 c 0
 39.4326 810.967 l 0
 44.2939 609.028 l 0
 141.466 611.553 l 0
 300.814 616.022 432.541 617.485 501.02 587.572 c 0
 535.254 572.615 555.159 555.217 573.902 519.418 c 0
 592.641 483.618 607.494 425.695 609.124 333.887 c 0
 610.842 237.193 603.633 168.422 590.902 128.16 c 0
 578.174 87.8994 566.597 75.2275 542.32 61.2686 c 0
 493.761 33.3506 356.254 25.2305 126.889 37.2881 c 0
 29.7158 42.3379 l 0
 20 -158.34 l 0
 117.176 -163.389 l 0
 349.278 -175.591 506.535 -190.48 637.06 -115.428 c 0
 702.324 -77.9014 751.316 -11.5391 775.537 65.0557 c 0
 799.76 141.649 805.393 229.765 803.476 337.673 c 0
 801.471 450.464 784.318 541.812 745.17 616.601 c 0
 706.023 691.391 643.758 744.908 576.328 774.365 c 0
 508.897 803.822 437.357 814.095 363.757 817.276 c 0
EndSplineSet
Validated: 524841
EndChar

StartChar: glyph 12
Encoding: 236 1500 12
Width: 825
VWidth: 90
Flags: W
VStem: 610.343 194.354<476.674 613.47>
LayerCount: 2
Fore
SplineSet
23.6445 1164.36 m 0
 22.4326 1063.39 l 0
 20 713.782 l 0
 117.172 611.551 l 0
 117.172 611.551 258.246 613.625 401.41 614.075 c 0
 472.999 614.323 545.938 614.253 600.619 614.075 c 0
 604.675 614.075 606.488 614.075 610.343 614.075 c 0
 608.975 566.412 600.013 505.298 588.475 475.242 c 0
 582.393 459.394 545.346 415.575 497.374 370.486 c 0
 449.403 325.397 389.947 281.402 358.897 196.314 c 0
 307.646 55.8447 351.607 -86.4004 351.607 -86.4004 c 0
 374.689 -184.847 l 0
 562.971 -138.147 l 0
 541.106 -39.7021 l 0
 541.106 -39.7021 525.343 81.1631 541.106 124.373 c 0
 543.571 131.126 578.844 175.965 627.347 221.557 c 0
 675.856 267.148 736.861 315.857 769.466 400.777 c 0
 796.52 471.224 803.048 545.476 804.696 609.026 c 0
 805.519 640.803 804.979 668.746 802.267 693.589 c 0
 800.913 706.01 798.976 718.209 794.979 732.715 c 0
 792.978 739.968 791.009 747.69 784.044 760.48 c 0
 777.08 773.271 765.039 799.494 720.883 810.966 c 0
 701.127 816.099 703.408 814.539 700.229 814.749 c 0
 697.056 814.963 694.764 814.644 691.728 814.749 c 0
 685.659 814.963 678.617 814.644 669.864 814.749 c 0
 652.354 814.997 628.351 815.926 600.623 816.014 c 0
 545.188 816.19 473.195 816.262 401.414 816.014 c 0
 307.947 815.73 268.878 815.055 215.568 814.749 c 0
 216.783 1060.86 l 0
 218.001 1161.83 l 0
 23.6445 1164.36 l 0
EndSplineSet
Validated: 524841
EndChar

StartChar: glyph 13
Encoding: 238 1502 13
Width: 968
VWidth: 90
Flags: W
VStem: 45.5117 193.133<-67.6309 112.341>
LayerCount: 2
Fore
SplineSet
166.979 890.317 m 0
 20 759.057 l 0
 83.1611 682.067 l 0
 193.703 548.283 l 0
 159.749 484.181 134.495 415.581 114.753 348.868 c 0
 53.1885 140.908 45.5117 -58.7959 45.5117 -58.7959 c 0
 40.6514 -159.766 l 0
 235.003 -168.601 l 0
 238.645 -67.6309 l 0
 238.645 -67.6309 247.914 111.582 300.595 289.549 c 0
 326.933 378.531 365.142 464.589 411.133 524.303 c 0
 416.879 531.768 422.299 539.14 428.133 545.76 c 0
 432.225 550.392 437.344 554.162 441.499 558.381 c 0
 441.499 559.641 l 0
 478.751 597.217 519.291 617.759 571.475 621.484 c 0
 636.11 626.101 656.83 608.396 686.869 558.378 c 0
 716.905 508.361 738.865 421.471 747.602 329.935 c 0
 758.891 211.693 752.989 109.625 746.394 37.123 c 0
 501.02 37.123 l 0
 403.844 37.123 l 0
 403.844 -164.815 l 0
 501.02 -164.815 l 0
 833.849 -164.815 l 0
 929.807 -77.7295 l 0
 929.807 -77.7295 961.426 133.448 940.741 350.128 c 0
 930.397 458.47 908.944 569.691 852.07 664.396 c 0
 795.19 759.102 687.097 832.634 558.112 823.424 c 0
 461.584 816.53 379.602 772.766 315.176 712.356 c 0
 230.143 813.326 l 0
 166.979 890.317 l 0
EndSplineSet
Validated: 524841
EndChar

StartChar: glyph 14
Encoding: 240 1504 14
Width: 662
VWidth: 90
Flags: W
VStem: 442.708 199.212<37.2881 305.652>
LayerCount: 2
Fore
SplineSet
279.944 813.489 m 0
 182.771 809.705 l 0
 191.273 607.767 l 0
 288.446 612.815 l 0
 329.995 614.815 342.152 606.356 357.683 590.097 c 0
 373.217 573.838 392.715 538.078 406.274 479.03 c 0
 428.903 380.46 435.4 220.344 442.708 37.2881 c 0
 117.172 37.2881 l 0
 20 37.2881 l 0
 20 -164.649 l 0
 117.172 -164.649 l 0
 544.748 -164.649 l 0
 641.92 -58.6328 l 0
 632.49 170.789 630.715 368.198 594.551 525.729 c 0
 576.463 604.493 549.653 676.721 496.156 732.717 c 0
 442.662 788.711 362.349 817.455 279.944 813.489 c 0
EndSplineSet
Validated: 524841
EndChar

StartChar: glyph 15
Encoding: 241 1505 15
Width: 975
VWidth: 90
Flags: W
HStem: -165.914 201.937<371.319 439.069 556.893 661.301> 612.813 201.94<272.652 682.839> 621.647 201.939<271.538 539.521>
VStem: 73.4434 194.354<181.188 617.861>
LayerCount: 2
Fore
SplineSet
22.4258 823.587 m 0xb0
 20 621.647 l 0xb0
 78.3037 620.384 l 0
 75.6621 574.423 71.0732 523.089 73.4434 412.135 c 0
 75.0596 336.479 79.9512 255.733 91.6621 181.166 c 0
 103.377 106.601 118.131 38.6543 163.329 -22.0342 c 0
 233.947 -116.849 334.981 -151.398 413.556 -162.13 c 0
 452.845 -167.494 487.476 -166.824 514.377 -165.914 c 0
 541.278 -165.005 569.919 -165.224 556.893 -164.65 c 0
 599.037 -166.503 737.217 -166.583 843.558 -49.7979 c 0
 907.414 20.3281 928.695 110.387 943.164 202.627 c 0
 957.628 294.865 959.363 389.135 948.024 468.933 c 0
 936.284 551.544 906.299 630.992 855.708 696.114 c 0
 805.115 761.235 728.499 813.477 637.062 814.754 c 0xd0
 119.601 822.326 l 0
 22.4258 823.587 l 0xb0
272.652 617.861 m 0
 633.417 612.813 l 0xd0
 657.389 612.494 679.55 601.205 703.869 569.9 c 0
 728.191 538.596 749.088 489.245 756.103 439.902 c 0
 763.517 387.747 763.624 306.646 752.458 235.439 c 0
 741.292 164.233 713.459 102.23 701.443 89.0332 c 0
 656.043 39.1768 585.124 36.4209 565.396 37.2861 c 0
 536.901 38.541 528.859 36.7168 508.307 36.0225 c 0
 487.758 35.3281 463.657 35.1904 439.069 38.5479 c 0
 389.891 45.2637 345.868 62.0664 316.385 101.653 c 0
 311.536 108.164 292.973 154.243 283.589 213.981 c 0
 274.206 273.721 269.289 347.365 267.797 417.183 c 0
 265.534 523.413 270.284 577.271 272.652 617.861 c 0
EndSplineSet
Validated: 524841
EndChar

StartChar: glyph 16
Encoding: 242 1506 16
Width: 885
VWidth: 90
Flags: W
LayerCount: 2
Fore
SplineSet
303.022 832.261 m 0
 112.319 791.872 l 0
 131.753 693.427 l 0
 273.868 -38.6016 l 0
 221.188 -52.4199 166.706 -67.9131 109.89 -92.8721 c 0
 20 -132 l 0
 95.3135 -317.529 l 0
 185.198 -278.404 l 0
 301.267 -227.415 485.474 -232.077 646.784 -110.543 c 0
 727.439 -49.7744 794.284 46.5566 830.205 181.007 c 0
 866.121 315.456 874.999 488.367 854.499 722.455 c 0
 845.993 822.162 l 0
 652.856 804.493 l 0
 661.358 703.523 l 0
 680.552 484.411 669.687 334.655 643.137 235.277 c 0
 616.593 135.899 578.855 87.1172 532.602 52.2705 c 0
 512.399 37.0469 488.269 25.8262 462.149 15.6699 c 0
 322.457 732.553 l 0
 303.022 832.261 l 0
EndSplineSet
Validated: 524841
EndChar

StartChar: glyph 17
Encoding: 244 1508 17
Width: 823
VWidth: 90
Flags: HW
LayerCount: 2
Fore
SplineSet
132.961 813.489 m 0
 37 722.617 l 0
 37 722.617 30.6377 653.867 30.9277 573.687 c 0
 31.0693 533.597 32.749 489.647 38.2148 447.476 c 0
 43.6807 405.304 49.335 365.114 75.8711 321.264 c 0
 124.884 240.271 202.481 219.879 258.076 208.936 c 0
 313.668 197.99 361.324 200.1 361.324 200.1 c 0
 458.5 203.885 l 0
 451.213 404.562 l 0
 354.037 402.036 l 0
 354.037 402.036 326.626 400.766 294.518 407.085 c 0
 262.405 413.406 239.907 430.46 241.069 428.541 c 0
 243.684 424.227 233.847 446.631 230.138 475.239 c 0
 226.429 503.849 225.404 539.168 225.277 573.685 c 0
 225.207 593.787 225.891 594.152 226.495 611.549 c 0
 398.984 611.549 l 0
 471.951 611.549 514.743 583.622 550.819 533.297 c 0
 586.896 482.972 609.55 407.247 609.124 330.097 c 0
 608.699 252.944 585.599 176.521 547.174 124.37 c 0
 509.188 72.8145 460.71 40.0947 380.761 37.2842 c 0
 379.84 37.2441 379.263 37.3242 378.335 37.2842 c 0
 117.176 37.2842 l 0
 20 37.2842 l 0
 20 -164.654 l 0
 117.176 -164.654 l 0
 380.765 -164.654 l 0
 383.19 -164.654 l 0
 519.465 -161.052 631.834 -92.5312 701.443 1.94434 c 0
 771.049 96.4209 802.842 213.365 803.476 328.833 c 0
 804.109 444.303 774.484 559.778 707.515 653.197 c 0
 640.546 746.618 530.302 813.487 398.983 813.487 c 0
 132.961 813.489 l 0
EndSplineSet
Validated: 524837
EndChar

StartChar: glyph 18
Encoding: 246 1510 18
Width: 829
VWidth: 90
Flags: W
LayerCount: 2
Fore
SplineSet
208.276 853.716 m 0
 49.1533 736.339 l 0
 106.243 654.302 l 0
 389.267 240.326 l 0
 400.198 163.337 l 0
 437.854 169.648 l 0
 527.743 37.124 l 0
 117.176 37.124 l 0
 20 37.124 l 0
 20 -164.813 l 0
 117.176 -164.813 l 0
 714.805 -164.813 l 0
 793.759 -4.52441 l 0
 633.421 230.229 l 0
 664.91 250.517 691.84 275.123 713.59 302.171 c 0
 762.143 362.55 785.633 431.327 797.404 494.012 c 0
 820.951 619.381 799.834 731.29 799.834 731.29 c 0
 782.827 830.997 l 0
 590.905 794.396 l 0
 609.127 694.688 l 0
 609.127 694.688 621.714 613.092 606.697 533.138 c 0
 599.191 493.161 584.621 456.32 564.182 430.906 c 0
 552.608 416.513 538.948 406.05 520.454 396.828 c 0
 264.155 771.679 l 0
 208.276 853.716 l 0
EndSplineSet
Validated: 524841
EndChar

StartChar: glyph 19
Encoding: 247 1511 19
Width: 919
VWidth: 90
Flags: W
HStem: 611.39 201.938<406.27 664.932>
LayerCount: 2
Fore
SplineSet
22.4287 813.327 m 0
 22.4287 611.39 l 0
 119.604 611.39 l 0
 406.271 611.39 l 0
 550.53 611.39 631.476 604.817 655.283 594.981 c 0
 667.188 590.063 668.158 590.127 674.718 579.836 c 0
 681.278 569.545 691.014 546.275 701.44 506.633 c 0
 712.189 465.77 690.605 383.023 630.989 288.286 c 0
 571.372 193.55 482.985 92.5322 401.411 8.09668 c 0
 332.174 -62.582 l 0
 469.434 -206.464 l 0
 537.457 -134.522 l 0
 623.547 -45.4121 720.874 62.6631 793.757 178.482 c 0
 866.64 294.302 924.341 423.394 888.503 559.643 c 0
 875.638 608.557 861.788 652.14 836.271 692.164 c 0
 810.755 732.191 770.26 765.144 726.948 783.037 c 0
 640.326 818.824 551.107 813.327 406.27 813.327 c 0
 119.603 813.327 l 0
 22.4287 813.327 l 0
20 438.479 m 0
 20 337.51 l 0
 20 -380.637 l 0
 20 -481.605 l 0
 214.351 -481.605 l 0
 214.351 -380.637 l 0
 214.351 337.51 l 0
 214.351 438.479 l 0
 20 438.479 l 0
EndSplineSet
Validated: 524841
EndChar

StartChar: glyph 20
Encoding: 248 1512 20
Width: 904
VWidth: 90
Flags: W
HStem: 610.288 201.939<117.176 346.659 492.924 637.492>
VStem: 689.295 194.351<408.35 539.3>
LayerCount: 2
Fore
SplineSet
533.816 817.276 m 0
 428.123 824.479 296.51 817.276 117.176 813.491 c 0
 20 812.228 l 0
 23.6426 610.288 l 0
 120.818 611.553 l 0
 302.229 615.397 433.793 621.245 520.453 615.337 c 0
 607.111 609.431 635.754 594.808 649.211 578.734 c 0
 662.668 562.663 679.705 514.452 685.652 408.35 c 0
 691.599 302.245 688.58 147.101 689.295 -63.6836 c 0
 689.295 -164.652 l 0
 883.646 -163.389 l 0
 883.646 -62.4189 l 0
 882.935 146.002 886.751 299.277 880.004 419.711 c 0
 873.254 540.143 857.854 636.16 794.975 711.26 c 0
 732.095 786.359 639.51 810.073 533.816 817.276 c 0
EndSplineSet
Validated: 524841
EndChar

StartChar: glyph 21
Encoding: 249 1513 21
Width: 1083
VWidth: 90
Flags: W
VStem: 20 197.994<44.6973 177.244 622.748 786.933> 869.07 194.352<398.421 713.619>
LayerCount: 2
Fore
SplineSet
611.547 829.735 m 0
 419.625 795.658 l 0
 435.414 695.951 l 0
 435.414 695.951 447 617.447 423.268 540.711 c 0
 401.057 468.891 365.479 404.706 228.916 384.207 c 0
 230.453 463.09 230.977 539.719 230.135 601.293 c 0
 229.615 639.032 228.877 670.675 226.494 697.214 c 0
 225.297 710.482 224.15 722.211 220.42 737.601 c 0
 218.555 745.297 216.6 753.845 208.273 769.154 c 0
 199.947 784.464 174.994 821.066 123.244 822.162 c 0
 26.0684 824.688 l 0
 22.4258 622.748 l 0
 34.5723 622.748 l 0
 34.8555 613.469 35.6387 609.346 35.791 598.769 c 0
 36.7539 528.644 35.7207 432.568 33.3613 336.248 c 0
 28.627 143.605 20 -49.96 20 -49.96 c 0
 112.318 -155.979 l 0
 398.393 -170.92 627.992 -189.653 808.336 -67.6309 c 0
 898.51 -6.61816 965.027 91.1006 1005.12 218.87 c 0
 1045.21 346.642 1062.72 505.407 1063.42 712.359 c 0
 1063.42 813.328 l 0
 869.07 814.589 l 0
 869.07 713.619 l 0
 868.406 518.649 850.656 376.879 820.482 280.713 c 0
 790.311 184.548 751.875 135.614 701.443 101.491 c 0
 614.086 42.3857 443.82 36.3906 217.994 44.6973 c 0
 219.5 81.4844 220.979 126.284 222.854 179.743 c 0
 445.318 202.572 567.619 348.582 607.912 478.865 c 0
 648.508 610.129 627.348 730.026 627.348 730.026 c 0
 611.547 829.735 l 0
EndSplineSet
Validated: 524841
EndChar

StartChar: glyph 22
Encoding: 250 1514 22
Width: 973
VWidth: 90
Flags: W
HStem: 611.395 201.935<431.183 705.931>
VStem: 233.789 194.346<257.641 612.655> 758.531 194.352<408.192 539.144>
LayerCount: 2
Fore
SplineSet
233.789 820.9 m 0
 233.789 814.591 l 0
 216.705 814.158 204.441 813.711 186.416 813.329 c 0
 89.2402 812.069 l 0
 92.8828 610.131 l 0
 190.059 611.395 l 0
 206.891 611.749 217.811 612.276 233.789 612.655 c 0
 232.41 270.971 229.752 88.4678 217.996 42.1777 c 0
 207.576 41.7734 177.148 42 122.035 43.4414 c 0
 24.8594 45.9668 l 0
 20 -155.974 l 0
 117.176 -158.498 l 0
 171.68 -159.906 213.713 -167.951 271.441 -154.712 c 0
 300.307 -148.091 335.594 -131.694 360.113 -104.227 c 0
 384.633 -76.7598 397.949 -44.3984 406.271 -12.0928 c 0
 436.486 105.169 428.773 276.31 428.135 617.704 c 0
 493.338 618.859 546.938 618.098 589.689 615.181 c 0
 676.348 609.273 704.99 594.651 718.447 578.578 c 0
 731.904 562.507 748.941 514.297 754.889 408.192 c 0
 760.834 302.089 757.816 146.944 758.531 -63.8398 c 0
 758.531 -164.81 l 0
 952.883 -163.549 l 0
 952.883 -62.5791 l 0
 952.17 145.842 955.984 299.117 949.24 419.551 c 0
 942.492 539.982 927.092 636 864.213 711.1 c 0
 801.332 786.198 708.748 809.913 603.053 817.117 c 0
 551.879 820.604 493.939 820.883 428.137 819.642 c 0
 422.064 819.642 l 0
 233.789 820.9 l 0
EndSplineSet
Validated: 524841
EndChar

StartChar: glyph 23
Encoding: 243 1507 23
Width: 790
VWidth: 90
Flags: HW
LayerCount: 2
Fore
SplineSet
122.045 813.489 m 0
 26.084 722.617 l 0
 26.084 722.617 19.7207 653.867 20.0098 573.687 c 0
 20.1523 533.597 21.832 489.647 27.2969 447.476 c 0
 32.7637 405.304 38.416 365.114 64.9531 321.264 c 0
 113.967 240.271 191.564 219.879 247.156 208.936 c 0
 302.75 197.99 350.404 200.1 350.404 200.1 c 0
 447.58 203.885 l 0
 441.508 404.562 l 0
 344.332 402.036 l 0
 344.332 402.036 315.707 400.766 283.598 407.085 c 0
 251.488 413.406 228.99 430.46 230.15 428.541 c 0
 232.764 424.227 224.141 446.631 220.434 475.239 c 0
 216.725 503.849 214.484 539.168 214.359 573.685 c 0
 214.289 593.787 214.973 594.152 215.574 611.549 c 0
 388.061 611.549 l 0
 471.213 611.549 500.742 594.051 524.105 563.588 c 0
 547.471 533.124 566.131 472.246 572.693 381.843 c 0
 585.818 201.034 552.965 -77.8115 565.406 -388.05 c 0
 569.049 -489.019 l 0
 763.4 -481.446 l 0
 758.541 -380.477 l 0
 746.932 -90.9863 781.656 178.966 765.828 396.988 c 0
 757.916 505.999 738.539 606.923 675.941 688.537 c 0
 613.344 770.152 509.193 813.487 388.059 813.487 c 0
 122.045 813.489 l 0
EndSplineSet
Validated: 524837
EndChar

StartChar: glyph 24
Encoding: 245 1509 24
Width: 683
VWidth: 90
Flags: HW
LayerCount: 2
Fore
SplineSet
207.062 837.309 m 0
 20 784.3 l 0
 45.5078 687.116 l 0
 243.502 -73.9414 l 0
 238.643 -386.946 l 0
 237.426 -487.916 l 0
 431.775 -490.44 l 0
 432.994 -389.471 l 0
 437.854 -65.1074 l 0
 434.211 -37.3408 l 0
 377.119 183.53 l 0
 458.457 202.63 523.803 247.423 567.826 302.17 c 0
 616.381 362.549 639.867 431.327 651.641 494.012 c 0
 675.186 619.381 654.07 731.289 654.07 731.289 c 0
 637.064 830.996 l 0
 445.143 794.396 l 0
 463.363 694.688 l 0
 463.363 694.688 475.951 613.091 460.934 533.138 c 0
 453.426 493.16 438.857 456.32 418.42 430.905 c 0
 398.713 406.398 374.49 389.182 326.102 380.421 c 0
 232.57 738.862 l 0
 207.062 837.309 l 0
EndSplineSet
Validated: 524841
EndChar

StartChar: glyph 25
Encoding: 237 1501 25
Width: 911
VWidth: 90
Flags: W
HStem: 611.393 201.935<48.3926 101.383 520.451 636.692>
VStem: 689.293 194.352<35.8623 39.6494 408.188 539.138>
LayerCount: 2
Fore
SplineSet
352.824 819.639 m 0
 286.059 818.301 210.008 815.221 123.248 813.327 c 0
 120.953 813.298 119.484 813.367 117.176 813.327 c 0
 98.9551 813.327 l 0
 20 812.067 l 0
 23.6426 610.129 l 0
 101.383 611.393 l 0
 103.189 232.284 106.24 -65.1035 106.24 -65.1035 c 0
 199.773 -164.811 l 0
 199.773 -164.811 445.428 -172.196 793.758 -164.811 c 0
 828.984 -163.55 l 0
 883.646 -163.55 l 0
 883.646 -162.289 l 0
 890.934 -162.289 l 0
 886.074 39.6494 l 0
 883.645 39.6494 l 0
 883.998 193.062 885.486 321.592 880.002 419.548 c 0
 873.254 539.98 857.854 635.997 794.975 711.097 c 0
 732.094 786.196 639.51 809.91 533.816 817.114 c 0
 480.969 820.717 421.357 821.011 352.824 819.639 c 0
356.467 617.699 m 0
 422.867 618.903 477.119 618.127 520.451 615.175 c 0
 607.109 609.269 635.75 594.646 649.209 578.573 c 0
 662.666 562.501 679.703 514.291 685.65 408.188 c 0
 690.518 321.309 689.475 192.121 689.293 35.8623 c 0
 471.596 32.792 352.928 35.8223 299.375 37.1221 c 0
 298.539 101.305 295.895 306.55 294.518 616.436 c 0
 313.617 616.89 339.014 617.382 356.467 617.699 c 0
EndSplineSet
Validated: 524841
EndChar

StartChar: glyph 26
Encoding: 234 1498 26
Width: 827
VWidth: 90
Flags: HW
LayerCount: 2
Fore
SplineSet
20 813.489 m 0
 20 611.551 l 0
 117.176 611.551 l 0
 271.486 611.551 384.383 610.375 453.646 596.405 c 0
 522.908 582.434 541.064 570.735 562.969 528.25 c 0
 606.777 443.281 612.566 165.487 599.41 -385.522 c 0
 596.98 -486.492 l 0
 791.332 -491.541 l 0
 793.76 -390.571 l 0
 806.9 159.704 832.381 432.558 734.24 622.909 c 0
 685.17 718.085 591.432 774.114 490.088 794.558 c 0
 388.742 815.001 271.486 813.489 117.178 813.489 c 0
 20 813.489 l 0
EndSplineSet
Validated: 524841
EndChar

StartChar: glyph 27
Encoding: 239 1503 27
Width: 238
VWidth: 90
Flags: W
LayerCount: 2
Fore
SplineSet
23.6426 814.752 m 0
 23.6426 713.782 l 0
 20 -388.047 l 0
 20 -489.017 l 0
 214.352 -489.017 l 0
 214.352 -388.047 l 0
 217.994 712.52 l 0
 217.994 813.489 l 0
 23.6426 814.752 l 0
EndSplineSet
Validated: 524809
EndChar

StartChar: glyph 28
Encoding: 48 48 28
Width: 630
VWidth: 20
Flags: HW
LayerCount: 2
Fore
SplineSet
313.953 766.207 m 0
 201.586 770.689 112.434 702.92 71.0156 612.229 c 0
 29.5977 521.539 20 410.755 20 295.438 c 0
 20 176.312 39.9844 68.4336 84.3789 -17.5674 c 0
 128.773 -103.568 206.438 -169.129 301.809 -174.07 c 0
 399.762 -179.146 482.051 -116.112 532.598 -30.1885 c 0
 583.148 55.7344 610.34 167.716 610.34 289.128 c 0
 610.34 405.206 597.73 514.553 554.465 604.656 c 0
 511.199 694.761 424.992 761.779 313.953 766.207 c 0
309.094 624.851 m 0
 377.082 622.143 405.918 597.938 432.992 541.551 c 0
 460.066 485.164 474.293 393.861 474.293 289.128 c 0
 474.293 189.726 450.734 101.273 417.203 44.2764 c 0
 383.672 -12.7217 347.723 -34.7773 307.879 -32.7139 c 0
 265.457 -30.5186 234.012 -7.5957 204.629 49.3242 c 0
 175.246 106.244 156.039 193.75 156.039 295.438 c 0
 156.039 400.935 168.211 495.847 193.695 551.647 c 0
 219.18 607.449 242.434 627.509 309.094 624.851 c 0
EndSplineSet
Validated: 524841
EndChar

StartChar: glyph 29
Encoding: 57 57 29
Width: 607
VWidth: 20
Flags: HW
LayerCount: 2
Fore
SplineSet
301.809 763.521 m 0
 141.883 763.521 20 613.644 20 440.42 c 0
 20 267.195 141.883 116.056 301.809 116.056 c 0
 352.992 116.056 399.645 132.235 440.285 158.968 c 0
 436.094 127.854 430.367 99.7148 420.848 78.1914 c 0
 404.594 41.4365 384.172 18.6689 341.895 1.20215 c 0
 299.617 -16.2637 231.098 -24.7021 129.324 -12.6807 c 0
 62.5156 -5.1084 l 0
 46.7227 -145.203 l 0
 114.746 -154.038 l 0
 230.137 -167.669 319.285 -159.973 391.695 -130.058 c 0
 464.105 -100.143 515.422 -44.6924 543.531 18.8721 c 0
 599.75 146.002 584.676 295.355 584.832 437.896 c 0
 584.832 508.574 l 0
 576.328 508.574 l 0
 549.504 651.433 440.465 763.521 301.809 763.521 c 0
301.809 622.164 m 0
 378.027 622.164 447.574 546.545 447.574 440.42 c 0
 447.574 334.295 378.027 257.412 301.809 257.412 c 0
 225.59 257.412 156.047 334.295 156.047 440.42 c 0
 156.047 546.545 225.594 622.164 301.809 622.164 c 0
EndSplineSet
Validated: 524841
EndChar

StartChar: glyph 30
Encoding: 56 56 30
Width: 627
VWidth: 20
Flags: HW
LayerCount: 2
Fore
SplineSet
313.957 763.521 m 0
 234.656 765.434 167.246 732.704 124.465 684.009 c 0
 81.6836 635.312 61.3008 573.86 61.3008 514.885 c 0
 61.3008 463.971 70.4766 402.484 111.105 349.548 c 0
 115.305 344.077 120.867 339.429 125.68 334.401 c 0
 115.789 327.514 106.371 319.865 97.7422 311.684 c 0
 45.9648 262.592 20 193.222 20 124.89 c 0
 20 64.6211 31.6328 -6.9873 79.5195 -64.4277 c 0
 127.406 -121.867 206.348 -154.038 311.527 -154.038 c 0
 416.285 -154.038 495.645 -123.029 544.75 -66.9512 c 0
 593.852 -10.876 606.699 60.0146 606.699 121.104 c 0
 606.699 190.256 579.867 258.367 527.742 306.636 c 0
 518.637 315.066 508.965 323.458 498.59 330.615 c 0
 504.219 336.065 509.539 341.008 514.379 347.022 c 0
 556.078 398.851 565.395 460.625 565.395 512.36 c 0
 565.395 631.953 470.469 759.753 313.957 763.521 c 0
310.316 622.164 m 0
 402.031 619.955 429.355 560.387 429.355 512.36 c 0
 429.355 480.285 422.977 454.123 409.922 437.896 c 0
 396.863 421.666 373.84 405.08 311.531 405.08 c 0
 249.645 405.08 229.508 421.317 216.785 437.896 c 0
 204.062 454.474 197.348 481.988 197.348 514.885 c 0
 197.348 539.719 206.602 569.467 224.07 589.35 c 0
 241.539 609.232 265.5 623.243 310.316 622.164 c 0
310.316 243.528 m 0
 374.051 241.995 413.348 223.452 436.645 201.88 c 0
 459.941 180.307 470.656 154.473 470.656 121.104 c 0
 470.656 79.6729 461.809 48.1211 443.934 27.7061 c 0
 426.055 7.29199 392.363 -12.6807 311.531 -12.6807 c 0
 231.117 -12.6807 198.93 8.13281 181.559 28.9697 c 0
 164.188 49.8057 156.051 82.6377 156.051 124.89 c 0
 156.051 159.079 166.922 186.138 188.848 206.928 c 0
 210.773 227.72 247.625 245.037 310.316 243.528 c 0
EndSplineSet
Validated: 524841
EndChar

StartChar: glyph 31
Encoding: 55 55 31
Width: 599
VWidth: 20
Flags: HW
LayerCount: 2
Fore
SplineSet
20 763.684 m 0
 20 622.326 l 0
 88.0234 622.326 l 0
 417.203 622.326 l 0
 174.266 -57.9551 l 0
 151.188 -124.848 l 0
 278.73 -174.07 l 0
 301.809 -107.179 l 0
 578.758 669.024 l 0
 515.594 763.684 l 0
 88.0234 763.684 l 0
 20 763.684 l 0
EndSplineSet
Validated: 524809
EndChar

StartChar: glyph 32
Encoding: 54 54 32
Width: 607
VWidth: 20
Flags: HW
LayerCount: 2
Fore
SplineSet
410.777 769.832 m 0
 385.168 770.402 360.871 769.209 337.895 767.309 c 0
 291.949 763.504 251.418 754.499 215.211 739.541 c 0
 142.801 709.627 90.2695 654.177 62.1602 590.611 c 0
 5.94141 463.481 22.2344 314.127 22.0742 171.589 c 0
 22.0742 100.91 l 0
 30.5781 100.91 l 0
 58.1328 -42.4932 170.09 -154.038 308.742 -154.038 c 0
 468.668 -154.038 586.906 -2.95508 586.906 169.064 c 0
 586.906 342.288 465.023 493.429 305.098 493.429 c 0
 253.914 493.429 207.266 477.248 166.621 450.517 c 0
 170.812 482.148 176.414 509.486 186.055 531.293 c 0
 202.309 568.048 222.73 590.814 265.008 608.281 c 0
 307.285 625.747 375.805 634.187 477.578 622.164 c 0
 544.387 614.593 l 0
 560.18 754.687 l 0
 492.156 763.521 l 0
 463.309 766.929 436.383 769.263 410.777 769.832 c 0
305.098 352.071 m 0
 381.316 352.071 450.859 275.189 450.859 169.064 c 0
 450.859 61.7354 384.957 -12.6807 308.742 -12.6807 c 0
 232.523 -12.6807 159.336 64.1445 159.336 169.064 c 0
 159.336 275.189 228.883 352.071 305.098 352.071 c 0
EndSplineSet
Validated: 524841
EndChar

StartChar: glyph 33
Encoding: 53 53 33
Width: 620
VWidth: 20
Flags: HW
LayerCount: 2
Fore
SplineSet
147.547 746.014 m 0
 79.5234 675.334 l 0
 79.5234 367.379 l 0
 165.766 299.224 l 0
 165.766 299.224 247.297 321.414 322.461 309.32 c 0
 360.043 303.273 392.086 290.208 415.992 266.408 c 0
 439.898 242.609 459.305 207.076 463.363 137.674 c 0
 467.27 70.9248 451.305 41.6699 426.922 19.0332 c 0
 402.543 -3.60156 362.09 -18.8984 315.168 -25.1406 c 0
 221.332 -37.625 117.176 -13.7812 117.176 -13.7812 c 0
 50.3672 1.36328 l 0
 20 -136.206 l 0
 86.8086 -152.614 l 0
 86.8086 -152.614 205.957 -182.027 332.176 -165.236 c 0
 395.285 -156.84 463.527 -137.582 518.023 -86.9844 c 0
 572.52 -36.3857 605.219 45.9775 599.406 145.245 c 0
 593.75 241.857 560.715 317.619 510.734 367.379 c 0
 460.754 417.137 399.18 440.394 343.105 449.415 c 0
 295.238 457.117 252.469 453.398 215.562 449.415 c 0
 215.562 604.656 l 0
 492.512 604.656 l 0
 560.535 604.656 l 0
 560.535 746.014 l 0
 492.512 746.014 l 0
 147.547 746.014 l 0
EndSplineSet
Validated: 524841
EndChar

StartChar: glyph 34
Encoding: 52 52 34
Width: 669
VWidth: 20
Flags: HW
LayerCount: 2
Fore
SplineSet
384.406 733.393 m 0
 20 175.536 l 0
 75.875 64.4697 l 0
 372.262 64.4697 l 0
 372.262 -83.1973 l 0
 372.262 -153.877 l 0
 508.309 -153.877 l 0
 508.309 -83.1973 l 0
 508.309 64.4697 l 0
 581.191 64.4697 l 0
 649.215 64.4697 l 0
 649.215 205.827 l 0
 581.191 205.827 l 0
 508.309 205.827 l 0
 508.309 693.005 l 0
 384.406 733.393 l 0
372.258 464.562 m 0
 372.258 205.827 l 0
 203.414 205.827 l 0
 372.258 464.562 l 0
EndSplineSet
Validated: 524809
EndChar

StartChar: glyph 35
Encoding: 51 51 35
Width: 650
VWidth: 20
Flags: W
HStem: 257.573 141.358<232.57 349.451> 626.112 141.358<174.255 437.902>
VStem: 493.73 136.047<22.5396 158.96>
LayerCount: 2
Fore
SplineSet
341.895 767.471 m 0
 233.461 769.374 134.18 738.44 134.18 738.44 c 0
 68.5859 719.51 l 0
 105.027 583.2 l 0
 170.621 603.395 l 0
 170.621 603.395 257.227 627.56 339.465 626.112 c 0
 380.582 625.391 418.156 616.387 440.285 603.395 c 0
 462.41 590.402 473.367 580.09 476.727 542.813 c 0
 480.312 502.998 470.387 484.43 453.648 465.823 c 0
 436.906 447.218 408.16 431.439 374.695 420.388 c 0
 308.324 398.469 235.031 398.92 233.789 398.932 c 0
 233.777 398.932 232.57 398.932 232.57 398.932 c 0
 231.352 328.252 l 0
 228.922 257.573 l 0
 228.922 257.573 230.125 257.573 230.141 257.573 c 0
 231.328 257.503 302.641 253.693 372.262 227.283 c 0
 407.355 213.971 440.117 194.832 460.934 173.012 c 0
 481.75 151.191 493.559 129.404 493.73 92.2363 c 0
 493.906 53.3623 483.66 34.3105 465.793 16.5098 c 0
 447.926 -1.29199 417.5 -16.1895 378.336 -25.1406 c 0
 300.004 -43.043 190.98 -33.9785 119.605 -15.0439 c 0
 54.0117 2.62598 l 0
 20 -133.683 l 0
 85.5938 -151.353 l 0
 175.699 -175.256 296.754 -189.281 407.488 -163.974 c 0
 462.855 -151.319 516.578 -128.31 559.324 -85.7227 c 0
 602.074 -43.1348 630.105 21.6865 629.777 93.498 c 0
 629.422 167.018 599.234 229.609 558.109 272.72 c 0
 538.617 293.153 517.176 309.444 494.945 323.203 c 0
 515.539 335.999 535.559 350.239 553.25 369.902 c 0
 593.191 414.295 618.297 481.844 611.555 556.696 c 0
 604.582 634.085 560.34 695.816 507.09 727.081 c 0
 453.84 758.348 396.105 766.517 341.895 767.471 c 0
EndSplineSet
Validated: 524841
EndChar

StartChar: glyph 36
Encoding: 50 50 36
Width: 650
VWidth: 20
Flags: W
LayerCount: 2
Fore
SplineSet
324.891 780.092 m 0
 296.773 782.608 269.387 781.589 244.719 777.566 c 0
 195.391 769.521 153.496 753.501 123.25 739.703 c 0
 109.176 733.282 98.6953 727.744 90.4531 723.295 c 0
 39.4375 723.295 l 0
 39.4375 652.616 l 0
 39.4375 652.616 81.9453 586.989 81.9531 586.986 c 0
 81.9531 586.986 115.949 583.197 115.965 583.202 c 0
 115.977 583.202 124.578 583.779 126.898 584.467 c 0
 129.219 585.149 130.547 586.527 131.758 586.991 c 0
 136.598 588.84 137.887 588.925 139.047 589.516 c 0
 141.371 590.694 141.527 591.399 142.688 592.04 c 0
 145.008 593.328 147.945 595.322 151.191 597.088 c 0
 157.68 600.618 166.418 604.466 177.914 609.71 c 0
 200.906 620.198 233.469 632.074 266.586 637.477 c 0
 332.824 648.279 393.891 645.034 448.789 551.652 c 0
 467.078 520.545 464.309 479.365 434.211 416.605 c 0
 404.117 353.846 347.73 281.024 286.02 214.666 c 0
 162.598 81.9502 20 -25.1357 20 -25.1357 c 0
 60.0859 -152.609 l 0
 561.754 -153.874 l 0
 629.777 -153.874 l 0
 629.777 -12.5166 l 0
 561.754 -12.5166 l 0
 248.363 -11.2529 l 0
 292.164 27.958 336.066 65.543 383.195 116.222 c 0
 450.332 188.41 514.922 268.498 555.684 353.499 c 0
 596.445 438.501 614.645 540.289 564.188 626.117 c 0
 502.242 731.483 409.25 772.541 324.891 780.092 c 0
EndSplineSet
Validated: 524841
EndChar

StartChar: glyph 37
Encoding: 49 49 37
Width: 554
VWidth: 20
Flags: W
LayerCount: 2
Fore
SplineSet
290.875 754.687 m 0
 86.8086 714.3 l 0
 20 701.679 l 0
 45.5078 562.845 l 0
 112.316 575.467 l 0
 236.215 599.446 l 0
 236.215 -12.6807 l 0
 119.605 -12.6807 l 0
 51.582 -12.6807 l 0
 51.582 -154.038 l 0
 119.605 -154.038 l 0
 465.793 -154.038 l 0
 533.816 -154.038 l 0
 533.816 -12.6807 l 0
 465.793 -12.6807 l 0
 372.262 -12.6807 l 0
 372.262 685.271 l 0
 290.875 754.687 l 0
EndSplineSet
Validated: 524809
EndChar

StartChar: glyph 38
Encoding: 59 59 38
Width: 336
VWidth: 40
Flags: HW
LayerCount: 2
Fore
SplineSet
122.035 562.651 m 0
 122.035 461.682 l 0
 122.035 416.245 l 0
 122.035 315.276 l 0
 316.387 315.276 l 0
 316.387 416.245 l 0
 316.387 461.682 l 0
 316.387 562.651 l 0
 122.035 562.651 l 0
122.035 96.9307 m 0
 122.035 -4.03906 l 0
 122.035 -48.2148 l 0
 66.1582 -159.28 l 0
 20 -248.891 l 0
 192.486 -342.287 l 0
 237.43 -252.677 l 0
 305.453 -117.631 l 0
 316.385 -70.9316 l 0
 316.385 -4.03906 l 0
 316.385 96.9307 l 0
 122.035 96.9307 l 0
EndSplineSet
Validated: 524809
EndChar

StartChar: glyph 39
Encoding: 126 126 39
Width: 911
VWidth: 40
Flags: HW
LayerCount: 2
Fore
SplineSet
785.258 429.028 m 0
 703.873 373.494 l 0
 703.873 373.494 673.311 353.503 630.992 341.942 c 0
 588.674 330.382 549.777 329.579 515.596 355.825 c 0
 418.213 430.598 304.473 418.567 228.928 393.688 c 0
 153.383 368.811 98.9551 328.059 98.9551 328.059 c 0
 20 270.002 l 0
 132.967 104.664 l 0
 211.922 163.983 l 0
 211.922 163.983 243.969 187.599 287.232 201.847 c 0
 330.496 216.096 368.135 217.632 400.199 193.012 c 0
 495.463 119.867 606.021 125.888 680.793 146.313 c 0
 755.566 166.74 809.551 204.37 809.551 204.37 c 0
 890.936 258.643 l 0
 785.258 429.028 l 0
EndSplineSet
Validated: 524837
EndChar

StartChar: glyph 40
Encoding: 46 46 40
Width: 234
VWidth: 40
Flags: HW
HStem: -151.547 247.375
VStem: 20 194.352
LayerCount: 2
Fore
SplineSet
20 95.8281 m 0
 20 -5.14062 l 0
 20 -50.5762 l 0
 20 -151.547 l 0
 214.352 -151.547 l 0
 214.352 -50.5762 l 0
 214.352 -5.14062 l 0
 214.352 95.8281 l 0
 20 95.8281 l 0
EndSplineSet
Validated: 524809
EndChar

StartChar: glyph 41
Encoding: 63 63 41
Width: 634
VWidth: 40
Flags: W
VStem: 214.352 194.352<172.928 269.573>
LayerCount: 2
Fore
SplineSet
293.307 828.958 m 0
 281.178 828.173 269.248 826.072 256.867 823.909 c 0
 207.336 815.263 156.32 796.598 105.029 765.853 c 0
 20 715.367 l 0
 117.176 539.934 l 0
 202.205 590.417 l 0
 270.652 631.447 315.139 631.933 345.537 623.232 c 0
 375.938 614.533 396.691 593.678 408.701 567.699 c 0
 420.711 541.723 421.314 513.619 413.559 495.76 c 0
 405.803 477.897 394.369 461.154 345.535 452.847 c 0
 321.24 445.274 l 0
 274.77 423.544 248.594 382.528 234.998 348.092 c 0
 221.402 313.653 216.57 282.009 214.348 253.433 c 0
 209.902 196.279 216.777 147.414 216.777 147.414 c 0
 408.699 173.918 l 0
 408.699 173.918 405.061 205.824 407.48 237.024 c 0
 408.609 251.56 412.867 264.266 414.77 269.84 c 0
 494.986 294.985 561.234 345.401 590.9 413.722 c 0
 625.494 493.395 619.193 581.713 584.826 656.047 c 0
 550.461 730.384 484.867 792.67 397.764 817.6 c 0
 365.1 826.947 329.688 831.32 293.307 828.958 c 0
409.918 268.577 m 0
 408.393 266.602 409.078 265.852 401.414 262.267 c 0
 400.195 264.791 l 0
 403.715 265.701 406.457 267.56 409.918 268.577 c 0
214.352 95.667 m 0
 214.352 -5.30176 l 0
 214.352 -50.7383 l 0
 214.352 -151.709 l 0
 408.703 -151.709 l 0
 408.703 -50.7383 l 0
 408.703 -5.30176 l 0
 408.703 95.667 l 0
 214.352 95.667 l 0
EndSplineSet
Validated: 524841
EndChar

StartChar: glyph 42
Encoding: 60 60 42
Width: 803
VWidth: 40
Flags: HW
LayerCount: 2
Fore
SplineSet
713.59 642.326 m 0
 622.488 606.986 l 0
 20 367.185 l 0
 20 177.866 l 0
 617.629 -61.9355 l 0
 707.518 -97.2754 l 0
 777.969 90.7803 l 0
 686.867 127.383 l 0
 326.104 272.525 l 0
 691.725 417.67 l 0
 782.826 454.271 l 0
 713.59 642.326 l 0
EndSplineSet
Validated: 524809
EndChar

StartChar: glyph 43
Encoding: 62 62 43
Width: 803
VWidth: 40
Flags: HW
LayerCount: 2
Fore
SplineSet
89.2363 642.326 m 0
 20 454.271 l 0
 109.887 417.67 l 0
 475.51 272.525 l 0
 114.746 127.383 l 0
 23.6445 90.7803 l 0
 94.0957 -97.2754 l 0
 185.197 -61.9355 l 0
 782.826 177.866 l 0
 781.609 367.185 l 0
 179.121 606.986 l 0
 89.2363 642.326 l 0
EndSplineSet
Validated: 524809
EndChar

StartChar: glyph 44
Encoding: 58 58 44
Width: 239
VWidth: 40
Flags: HW
LayerCount: 2
Fore
SplineSet
20 562.651 m 0
 20 461.682 l 0
 20 416.245 l 0
 20 315.276 l 0
 214.35 315.276 l 0
 214.35 416.245 l 0
 214.35 461.682 l 0
 214.35 562.651 l 0
 20 562.651 l 0
24.8594 95.668 m 0
 24.8594 -5.30176 l 0
 24.8594 -50.7383 l 0
 24.8594 -151.708 l 0
 219.209 -151.708 l 0
 219.209 -50.7383 l 0
 219.209 -5.30176 l 0
 219.209 95.668 l 0
 24.8594 95.668 l 0
EndSplineSet
Validated: 524809
EndChar

StartChar: glyph 45
Encoding: 44 44 45
Width: 336
VWidth: 40
Flags: HW
LayerCount: 2
Fore
SplineSet
122.035 97.0918 m 0
 122.035 -3.87891 l 0
 122.035 -45.5273 l 0
 64.9453 -159.118 l 0
 20 -248.729 l 0
 192.486 -342.125 l 0
 237.43 -252.516 l 0
 305.453 -117.47 l 0
 316.385 -70.7705 l 0
 316.385 -3.87891 l 0
 316.385 97.0918 l 0
 122.035 97.0918 l 0
EndSplineSet
Validated: 524809
EndChar

StartChar: glyph 46
Encoding: 124 124 46
Width: 237
VWidth: 40
Flags: HW
LayerCount: 2
Fore
SplineSet
22.4297 848.052 m 0
 22.4297 747.081 l 0
 20 -314.359 l 0
 20 -415.329 l 0
 214.352 -415.329 l 0
 214.352 -314.359 l 0
 216.779 747.081 l 0
 216.779 848.052 l 0
 22.4297 848.052 l 0
EndSplineSet
Validated: 524809
EndChar

StartChar: glyph 47
Encoding: 123 123 47
Width: 543
VWidth: 40
Flags: HW
LayerCount: 2
Fore
SplineSet
318.816 856.887 m 0
 270.543 847.344 201.693 805.346 174.268 729.412 c 0
 146.525 652.596 151.18 580.899 149.973 511.065 c 0
 149.371 476.149 148.436 442.896 146.328 418.932 c 0
 144.957 403.329 145.781 403.694 145.113 400 c 0
 138.941 398.742 118.295 381.822 92.8828 374.758 c 0
 55.918 364.48 20 360.873 20 360.873 c 0
 21.2148 160.196 l 0
 21.2148 160.196 48.4023 156.08 81.9492 145.052 c 0
 115.496 134.023 147.436 112.652 153.617 103.401 c 0
 148.574 110.95 157.34 62.0664 151.189 -6.40332 c 0
 145.037 -74.8711 124.254 -163.011 185.201 -252.516 c 0
 228.637 -316.307 292.945 -347.007 341.896 -352.223 c 0
 390.846 -357.44 432.998 -340.863 432.998 -340.863 c 0
 522.885 -304.263 l 0
 452.434 -116.206 l 0
 361.332 -154.07 l 0
 361.332 -154.07 365.537 -151.864 362.547 -151.546 c 0
 359.557 -151.228 358.002 -156.484 344.326 -136.4 c 0
 348.158 -142.03 339.439 -93.252 345.541 -25.335 c 0
 351.643 42.584 372.852 129.554 312.744 219.518 c 0
 303.666 233.106 291.436 237.847 281.162 248.546 c 0
 292.309 260.657 303.068 273.416 312.744 291.457 c 0
 335.084 333.102 337.611 366.334 340.684 401.262 c 0
 343.752 436.19 343.717 471.996 344.326 507.279 c 0
 345.537 577.263 352.639 649.34 355.26 657.472 c 0
 360.475 658.503 366.191 658.735 366.191 658.735 c 0
 460.936 637.28 l 0
 502.236 834.171 l 0
 407.49 855.627 l 0
 407.49 855.627 367.092 866.432 318.816 856.887 c 0
EndSplineSet
Validated: 524837
EndChar

StartChar: glyph 48
Encoding: 125 125 48
Width: 543
VWidth: 40
Flags: HW
LayerCount: 2
Fore
SplineSet
224.07 856.887 m 0
 175.797 866.43 135.398 855.622 135.398 855.622 c 0
 40.6523 834.166 l 0
 81.9531 637.275 l 0
 176.699 658.731 l 0
 176.699 658.731 182.416 658.483 187.631 657.468 c 0
 190.25 649.335 197.354 577.258 198.562 507.275 c 0
 199.174 471.991 200.35 436.187 203.422 401.258 c 0
 206.492 366.328 207.807 333.097 230.145 291.453 c 0
 239.818 273.412 250.578 260.653 261.725 248.542 c 0
 251.539 237.905 239.152 232.996 230.145 219.514 c 0
 170.037 129.549 192.461 42.5781 198.562 -25.3389 c 0
 204.664 -93.2559 195.943 -142.034 199.777 -136.404 c 0
 186.102 -156.49 184.547 -151.231 181.557 -151.551 c 0
 178.566 -151.869 181.557 -154.074 181.557 -154.074 c 0
 91.668 -116.207 l 0
 20 -304.263 l 0
 111.104 -340.864 l 0
 111.104 -340.864 152.039 -357.44 200.99 -352.224 c 0
 249.941 -347.008 314.25 -316.307 357.686 -252.517 c 0
 418.631 -163.011 397.848 -74.8711 391.697 -6.40332 c 0
 385.547 62.0654 395.525 110.949 390.482 103.401 c 0
 396.664 112.652 427.387 134.022 460.934 145.052 c 0
 494.48 156.079 521.668 160.196 521.668 160.196 c 0
 522.883 360.873 l 0
 522.883 360.873 488.182 364.48 451.215 374.757 c 0
 425.803 381.822 405.154 398.742 398.984 400 c 0
 398.326 403.666 397.93 403.296 396.555 418.932 c 0
 394.447 442.896 393.512 476.148 392.91 511.065 c 0
 391.703 580.899 397.574 652.595 369.832 729.412 c 0
 342.408 805.345 272.342 847.344 224.07 856.887 c 0
EndSplineSet
Validated: 524841
EndChar

StartChar: glyph 49
Encoding: 92 92 49
Width: 549
VWidth: 40
Flags: HW
LayerCount: 2
Fore
SplineSet
204.633 836.692 m 0
 20 774.849 l 0
 49.1523 678.928 l 0
 313.957 -184.36 l 0
 344.324 -280.282 l 0
 528.957 -219.7 l 0
 499.805 -123.779 l 0
 235.002 739.51 l 0
 204.633 836.692 l 0
EndSplineSet
Validated: 524809
EndChar

StartChar: glyph 50
Encoding: 91 91 50
Width: 363
VWidth: 40
Flags: HW
LayerCount: 2
Fore
SplineSet
117.176 855.624 m 0
 20 754.655 l 0
 20 -207.079 l 0
 117.176 -308.05 l 0
 245.934 -308.05 l 0
 343.109 -308.05 l 0
 343.109 -106.109 l 0
 245.934 -106.109 l 0
 214.354 -106.109 l 0
 214.354 653.686 l 0
 238.646 653.686 l 0
 335.822 653.686 l 0
 335.822 855.625 l 0
 238.646 855.625 l 0
 117.176 855.624 l 0
EndSplineSet
Validated: 524809
EndChar

StartChar: glyph 51
Encoding: 93 93 51
Width: 363
VWidth: 40
Flags: HW
LayerCount: 2
Fore
SplineSet
27.2871 855.624 m 0
 27.2871 653.686 l 0
 124.463 653.686 l 0
 148.758 653.686 l 0
 148.758 -106.109 l 0
 117.176 -106.109 l 0
 20 -106.109 l 0
 20 -308.05 l 0
 117.176 -308.05 l 0
 245.934 -308.05 l 0
 343.109 -207.079 l 0
 343.109 754.655 l 0
 245.934 855.624 l 0
 124.463 855.624 l 0
 27.2871 855.624 l 0
EndSplineSet
Validated: 524809
EndChar

StartChar: glyph 52
Encoding: 39 39 52
Width: 234
VWidth: 40
Flags: HW
LayerCount: 2
Fore
SplineSet
20 822.81 m 0
 20 721.84 l 0
 20 495.921 l 0
 20 394.951 l 0
 214.352 394.951 l 0
 214.352 495.921 l 0
 214.352 721.84 l 0
 214.352 822.81 l 0
 20 822.81 l 0
EndSplineSet
Validated: 524809
EndChar

StartChar: glyph 53
Encoding: 47 47 53
Width: 559
VWidth: 90
Flags: HW
LayerCount: 2
Fore
SplineSet
354.039 899.313 m 0
 323.672 803.393 l 0
 49.1523 -72.5176 l 0
 20 -168.438 l 0
 204.633 -231.545 l 0
 235 -135.623 l 0
 509.521 740.286 l 0
 538.674 836.207 l 0
 354.039 899.313 l 0
EndSplineSet
Validated: 524809
EndChar

StartChar: glyph 54
Encoding: 43 43 54
Width: 837
VWidth: 40
Flags: HW
LayerCount: 2
Fore
SplineSet
321.246 683.814 m 0
 321.246 582.845 l 0
 321.246 370.81 l 0
 117.176 370.81 l 0
 20 370.81 l 0
 20 168.87 l 0
 117.176 168.87 l 0
 321.246 168.87 l 0
 321.246 -43.165 l 0
 321.246 -144.136 l 0
 515.598 -144.136 l 0
 515.598 -43.165 l 0
 515.598 168.87 l 0
 719.668 168.87 l 0
 816.844 168.87 l 0
 816.844 370.81 l 0
 719.668 370.81 l 0
 515.598 370.81 l 0
 515.598 582.845 l 0
 515.598 683.814 l 0
 321.246 683.814 l 0
EndSplineSet
Validated: 524809
EndChar

StartChar: glyph 55
Encoding: 95 95 55
Width: 711
VWidth: 40
Flags: HW
LayerCount: 2
Fore
SplineSet
20 -229.798 m 0
 20 -431.736 l 0
 117.176 -431.736 l 0
 593.336 -431.736 l 0
 690.512 -431.736 l 0
 690.512 -229.798 l 0
 593.336 -229.798 l 0
 117.176 -229.798 l 0
 20 -229.798 l 0
EndSplineSet
Validated: 524801
EndChar

StartChar: glyph 56
Encoding: 41 41 56
Width: 416
VWidth: 40
Flags: HW
LayerCount: 2
Fore
SplineSet
197.348 874.557 m 0
 24.8633 781.159 l 0
 69.8047 691.55 l 0
 182.766 466.775 209.957 324.047 199.777 208.157 c 0
 189.598 92.2686 139.145 -8.84277 67.375 -143.974 c 0
 20 -232.321 l 0
 190.059 -330.768 l 0
 237.43 -242.418 l 0
 309.77 -106.211 378.434 24.4365 392.91 189.226 c 0
 407.387 354.016 365.223 540.329 242.289 784.945 c 0
 197.348 874.557 l 0
EndSplineSet
Validated: 524841
EndChar

StartChar: glyph 57
Encoding: 40 40 57
Width: 416
VWidth: 40
Flags: HW
LayerCount: 2
Fore
SplineSet
218.293 874.557 m 0
 173.348 784.945 l 0
 50.4141 540.329 8.25 354.016 22.7266 189.226 c 0
 37.2031 24.4365 105.867 -106.211 178.207 -242.419 c 0
 225.582 -330.768 l 0
 395.641 -232.321 l 0
 348.27 -143.974 l 0
 276.5 -8.84277 226.047 92.2686 215.867 208.157 c 0
 205.688 324.047 232.879 466.776 345.84 691.55 c 0
 390.785 781.159 l 0
 218.293 874.557 l 0
EndSplineSet
Validated: 524841
EndChar

StartChar: glyph 58
Encoding: 42 42 58
Width: 536
VWidth: 40
Flags: HW
LayerCount: 2
Fore
SplineSet
467.523 316.229 m 0
 301.461 374.74 l 0
 160.934 265.775 l 0
 163.164 447.952 l 0
 20 553.15 l 0
 187.445 607.231 l 0
 239.492 781.213 l 0
 340.742 632.459 l 0
 516.07 634.788 l 0
 411.199 488.773 l 0
 467.523 316.229 l 0
EndSplineSet
Validated: 524801
EndChar

StartChar: glyph 59
Encoding: 38 38 59
Width: 884
VWidth: 40
Flags: HW
LayerCount: 2
Fore
SplineSet
391.304 842.842 m 0
 382.546 842.735 374.421 842.487 365.796 841.577 c 0
 296.788 834.285 232.866 801.989 188.452 746.92 c 0
 144.038 691.85 122.003 614.05 132.577 534.883 c 0
 136.038 508.991 143.519 483.579 153.226 457.895 c 0
 75.7842 373.3 31.9482 283.788 22.0381 195.373 c 0
 10.7686 94.832 47.3271 0.976562 104.636 -63.3604 c 0
 219.253 -192.035 421.8 -232.668 565.003 -110.06 c 0
 578.569 -98.4453 594.886 -84.917 609.944 -72.1953 c 0
 647.601 -111.321 l 0
 716.839 -182.001 l 0
 854.101 -39.3809 l 0
 786.077 31.2988 l 0
 747.206 71.6855 l 0
 786.382 126.009 820.948 191.674 840.737 277.41 c 0
 863.815 375.856 l 0
 674.323 422.556 l 0
 651.245 325.371 l 0
 640.769 279.974 626.972 245.316 609.944 215.566 c 0
 391.3 442.748 l 0
 390.819 443.269 390.565 443.488 390.085 444.013 c 0
 343.823 494.472 328.069 535.872 324.491 562.651 c 0
 320.878 589.706 326.437 604.278 336.636 616.923 c 0
 357.03 642.211 404.155 659.957 461.749 618.184 c 0
 541.921 560.125 l 0
 652.456 725.464 l 0
 573.503 783.521 l 0
 517.034 824.479 452.608 843.537 391.304 842.842 c 0
267.405 284.985 m 0
 472.687 71.6865 l 0
 462.085 62.8984 452.479 54.9209 441.104 45.1826 c 0
 390.714 2.03906 295.183 19.8447 246.753 74.2119 c 0
 222.538 101.395 210.589 130.506 215.171 171.395 c 0
 218.448 200.625 232.511 239.194 267.405 284.985 c 0
EndSplineSet
Validated: 524841
EndChar

StartChar: glyph 60
Encoding: 94 94 60
Width: 860
VWidth: 40
Flags: HW
LayerCount: 2
Fore
SplineSet
487.66 808.926 m 0
 354.043 807.661 l 0
 89.2383 542.617 l 0
 20 471.938 l 0
 154.832 326.795 l 0
 224.07 396.212 l 0
 424.496 596.889 l 0
 637.066 394.949 l 0
 709.949 328.057 l 0
 839.922 476.986 l 0
 768.254 545.142 l 0
 487.66 808.926 l 0
EndSplineSet
Validated: 524809
EndChar

StartChar: glyph 61
Encoding: 37 37 61
Width: 1124
VWidth: 40
Flags: HW
LayerCount: 2
Fore
SplineSet
764.609 860.512 m 0
 714.809 773.425 l 0
 265.371 -6.56348 l 0
 215.566 -92.3887 l 0
 381.98 -197.144 l 0
 431.781 -110.058 l 0
 593.336 170.133 l 0
 590.184 153.553 588.477 135.853 588.477 118.386 c 0
 588.477 -28.1914 704.918 -149.184 845.992 -149.184 c 0
 987.062 -149.184 1103.51 -28.1914 1103.51 118.386 c 0
 1103.51 264.963 987.062 385.954 845.992 385.954 c 0
 783.07 385.954 725.77 361.262 680.793 321.587 c 0
 881.219 669.932 l 0
 931.02 755.756 l 0
 764.609 860.512 l 0
277.516 810.026 m 0
 136.445 810.026 20 689.034 20 542.457 c 0
 20 395.88 136.445 274.889 277.516 274.889 c 0
 418.586 274.889 535.031 395.88 535.031 542.457 c 0
 535.031 689.034 418.586 810.026 277.516 810.026 c 0
277.516 608.088 m 0
 313.551 608.088 340.68 579.9 340.68 542.457 c 0
 340.68 505.015 313.551 476.827 277.516 476.827 c 0
 241.48 476.827 214.352 505.015 214.352 542.457 c 0
 214.352 579.9 241.48 608.088 277.516 608.088 c 0
845.992 184.016 m 0
 882.031 184.016 909.156 155.828 909.156 118.386 c 0
 909.156 80.9414 882.027 52.7559 845.992 52.7559 c 0
 809.957 52.7559 782.828 80.9414 782.828 118.386 c 0
 782.828 155.828 809.957 184.016 845.992 184.016 c 0
EndSplineSet
Validated: 524809
EndChar

StartChar: glyph 62
Encoding: 36 36 62
Width: 712
VWidth: 40
Flags: HW
LayerCount: 2
Fore
SplineSet
245.934 845.366 m 0
 245.934 744.396 l 0
 245.934 726.727 l 0
 215.883 721.099 185.625 710.912 156.047 693.911 c 0
 89.3516 655.577 38.1797 568.49 39.4375 473.041 c 0
 40.6875 377.748 95.0625 293.457 158.477 257.219 c 0
 188.047 240.319 217.402 230.421 245.934 223.142 c 0
 245.934 65.377 l 0
 204.023 73.8418 171.836 83.0469 171.836 83.0469 c 0
 79.5195 114.6 l 0
 20 -77.2422 l 0
 112.316 -108.796 l 0
 112.316 -108.796 169.039 -128.511 245.934 -140.349 c 0
 245.934 -214.813 l 0
 245.934 -315.783 l 0
 440.285 -315.783 l 0
 440.285 -214.813 l 0
 440.285 -140.349 l 0
 476.426 -133.088 512.402 -120.654 547.18 -97.4365 c 0
 611.266 -54.6514 657.32 30.8799 658.934 127.221 c 0
 660.551 223.868 611.629 311.226 548.398 350.615 c 0
 511.621 373.526 475.086 385.709 440.289 393.527 c 0
 440.289 515.952 l 0
 492.684 504.623 535.035 490.711 535.035 490.711 c 0
 626.137 456.633 l 0
 691.73 647.214 l 0
 599.414 681.291 l 0
 599.414 681.291 530.109 707.879 440.289 722.94 c 0
 440.289 744.396 l 0
 440.289 845.366 l 0
 245.934 845.366 l 0
245.934 515.952 m 0
 245.934 437.701 l 0
 236.219 442.171 234.211 443.257 233.785 475.565 c 0
 233.316 511.073 235.688 510.901 245.934 515.952 c 0
440.285 180.229 m 0
 443.254 178.915 446.73 177.727 448.789 176.443 c 0
 464.277 166.795 466.531 173.907 465.793 129.744 c 0
 465.051 85.2764 457.875 83.0703 442.715 72.9492 c 0
 442.086 72.5273 440.984 72.1064 440.285 71.6885 c 0
 440.285 180.229 l 0
EndSplineSet
Validated: 524841
EndChar

StartChar: glyph 63
Encoding: 35 35 63
Width: 898
VWidth: 40
Flags: H
LayerCount: 2
Fore
SplineSet
345.547 808.765 m 0
 321.254 710.319 l 0
 284.812 562.651 l 0
 183.992 563.915 l 0
 86.8164 565.176 l 0
 85.5977 363.236 l 0
 182.773 361.976 l 0
 235.004 361.976 l 0
 216.785 287.511 l 0
 118.395 288.774 l 0
 21.2188 290.035 l 0
 20 88.0957 l 0
 117.176 86.835 l 0
 168.191 86.835 l 0
 142.684 -15.3965 l 0
 118.391 -113.842 l 0
 306.668 -163.064 l 0
 330.961 -65.8809 l 0
 368.617 85.5732 l 0
 414.777 85.5732 l 0
 390.484 -15.3965 l 0
 366.191 -113.842 l 0
 554.469 -163.064 l 0
 578.762 -65.8809 l 0
 615.203 83.0488 l 0
 713.594 83.0488 l 0
 810.77 83.0488 l 0
 811.988 284.988 l 0
 714.812 284.988 l 0
 665.012 284.988 l 0
 683.23 358.19 l 0
 779.191 358.19 l 0
 876.367 358.19 l 0
 877.586 560.13 l 0
 780.41 560.13 l 0
 733.039 560.13 l 0
 757.332 661.1 l 0
 781.625 758.282 l 0
 593.348 808.768 l 0
 569.051 710.321 l 0
 532.609 561.393 l 0
 485.238 561.393 l 0
 509.531 661.1 l 0
 533.824 758.282 l 0
 345.547 808.765 l 0
435.434 360.713 m 0
 482.805 359.451 l 0
 464.582 286.249 l 0
 417.211 286.249 l 0
 435.434 360.713 l 0
EndSplineSet
Validated: 524809
EndChar

StartChar: glyph 64
Encoding: 64 64 64
Width: 1115
VWidth: 40
Flags: HW
LayerCount: 2
Fore
SplineSet
554.346 787.309 m 0
 505.725 786.643 440.393 780.884 370.928 757.018 c 0
 231.998 709.284 74.9199 576.623 29.5996 321.587 c 0
 20.4199 269.93 6.16602 152.56 51.4629 18.6787 c 0
 96.7598 -115.202 208.037 -261.498 417.084 -351.122 c 0
 431.908 -357.479 445.986 -361.61 475.389 -368.793 c 0
 504.791 -375.974 543.646 -382.813 588.354 -383.938 c 0
 677.768 -386.186 797.6 -363.357 888.385 -262.773 c 0
 955.193 -188.31 l 0
 843.439 -79.7676 l 0
 907.881 -66.5791 965.354 -44.0518 1003.78 -1.51562 c 0
 1059.56 60.2354 1079.08 135.291 1088.81 200.424 c 0
 1098.06 262.387 1106.13 382.614 1048.72 508.381 c 0
 991.314 634.146 858.244 752.453 639.369 782.261 c 0
 644.592 781.549 629.018 784.729 613.861 786.045 c 0
 598.705 787.363 578.654 787.64 554.346 787.309 c 0
556.775 585.369 m 0
 573.838 585.617 587.018 584.963 596.861 584.105 c 0
 606.701 583.248 606.943 583.964 615.08 582.845 c 0
 714.018 569.371 772.1 540.033 811.861 504.594 c 0
 656.381 503.332 l 0
 656.381 488.188 l 0
 624.502 505.149 588.791 516.957 549.486 518.479 c 0
 448.85 522.371 363.033 461.086 325.982 391.005 c 0
 288.932 320.924 283.467 249.166 283.467 192.853 c 0
 283.467 131.315 295.869 62.4004 338.127 2.27246 c 0
 380.389 -57.8564 457.912 -99.96 544.623 -99.96 c 0
 605.811 -99.96 662.564 -76.5449 704.963 -41.9014 c 0
 753.549 -93.6484 l 0
 761.967 -93.8965 768.428 -90.0762 776.627 -89.8623 c 0
 746.26 -123.939 l 0
 702.404 -172.53 648.498 -184.649 593.209 -183.26 c 0
 565.564 -182.565 539.545 -177.856 520.326 -173.162 c 0
 501.107 -168.469 483.74 -161.141 491.174 -164.327 c 0
 325.373 -93.2441 263.662 0.483398 234.873 85.5713 c 0
 206.084 170.66 215.744 252.552 221.51 284.986 c 0
 255.674 477.223 342.506 534.55 431.65 565.178 c 0
 476.225 580.49 522.639 584.903 556.775 585.369 c 0
850.732 461.682 m 0
 859.166 448.94 866.549 435.807 872.596 422.557 c 0
 904.658 352.315 901.986 266.102 896.889 231.977 c 0
 889.994 185.791 877.744 153.775 862.877 137.316 c 0
 860.619 134.817 855.818 133.375 853.158 131.007 c 0
 850.729 403.624 l 0
 850.732 461.682 l 0
520.334 317.801 m 0
 525.447 318.339 532.768 318.164 542.197 317.801 c 0
 582.721 316.234 580.416 311.382 589.568 292.558 c 0
 598.725 273.735 604.143 232.465 604.143 192.851 c 0
 604.143 159.765 595.924 131.197 588.354 119.648 c 0
 580.783 108.099 580.822 101.978 544.623 101.978 c 0
 508.424 101.978 503.721 109.509 494.818 122.173 c 0
 485.92 134.835 477.814 162.376 477.814 192.851 c 0
 477.814 228.548 486.143 272.813 497.248 293.819 c 0
 505.576 309.574 504.982 316.185 520.334 317.801 c 0
EndSplineSet
Validated: 524837
EndChar

StartChar: glyph 65
Encoding: 33 33 65
Width: 238
VWidth: 40
Flags: W
LayerCount: 2
Fore
SplineSet
23.6445 802.453 m 0
 23.6445 701.484 l 0
 21.2148 238.286 l 0
 21.2148 137.316 l 0
 215.566 137.316 l 0
 215.566 238.286 l 0
 217.996 701.484 l 0
 217.996 802.453 l 0
 23.6445 802.453 l 0
20 95.667 m 0
 20 -5.30176 l 0
 20 -50.7383 l 0
 20 -151.709 l 0
 214.352 -151.709 l 0
 214.352 -50.7383 l 0
 214.352 -5.30176 l 0
 214.352 95.667 l 0
 20 95.667 l 0
EndSplineSet
Validated: 524809
EndChar

StartChar: glyph 66
Encoding: 61 61 66
Width: 839
VWidth: 40
Flags: HW
LayerCount: 2
Fore
SplineSet
21.2188 497.021 m 0
 20 295.082 l 0
 117.176 295.082 l 0
 720.879 292.558 l 0
 818.055 292.558 l 0
 819.273 494.496 l 0
 722.098 494.496 l 0
 118.395 497.021 l 0
 21.2188 497.021 l 0
21.2188 250.907 m 0
 20 48.9697 l 0
 117.176 47.708 l 0
 720.879 46.4443 l 0
 818.055 46.4443 l 0
 819.273 248.385 l 0
 722.098 248.385 l 0
 118.395 249.646 l 0
 21.2188 250.907 l 0
EndSplineSet
Validated: 524809
EndChar

StartChar: glyph 67
Encoding: 45 45 67
Width: 434
VWidth: 40
Flags: HW
LayerCount: 2
Fore
SplineSet
21.2188 329.32 m 0
 20 127.383 l 0
 117.176 127.383 l 0
 315.172 124.857 l 0
 412.348 124.857 l 0
 413.566 326.797 l 0
 316.391 326.797 l 0
 118.395 329.321 l 0
 21.2188 329.32 l 0
EndSplineSet
Validated: 524809
EndChar

